<svg class="svg-icon" width="100%" height="100%" viewBox="0 0 1024 1024" version="1.1" xmlns="http://www.w3.org/2000/svg"><path d="M908.7 447.3c-46-55.1-119.2-92.2-217.7-110.1-75.8-13.8-144.6-12.1-170.6-11.5-3.2 0.1-5.9 0.1-7.3 0.1s-4.2-0.1-7.3-0.1c-25.9-0.6-94.8-2.3-170.6 11.5-98.4 17.9-171.7 55-217.7 110.1-41.9 50.2-53.9 96.5-51.3 123.1 1.5 15.2 7.8 42.6 18 66.8 15.8 37.5 36.8 58.2 62.4 61.6 2.8 0.4 5.8 0.6 8.9 0.6 30.4 0 71.4-16.9 88.7-24.8 29.8-13.5 67.5-34.3 78.1-57.1 10.7-23 11-41.1 11.2-54.4 0.2-10.5 0.4-14.6 3.4-19.6 1.3-1.3 15.2-13.4 78.4-23.4 40.3-6.3 81.3-8.7 97.7-8.7s57.3 2.4 97.7 8.7c63.2 9.9 77 22.1 78.4 23.4 3 5 3.2 9 3.4 19.6 0.2 13.2 0.5 31.3 11.2 54.4 10.6 22.8 48.3 43.7 78.1 57.1 17.4 7.8 58.4 24.8 88.7 24.8 3.1 0 6.1-0.2 8.9-0.6 25.6-3.4 46.6-24.1 62.4-61.6 10.2-24.3 16.5-51.7 18-66.8 2.8-26.6-9.2-72.9-51.1-123.1z m-4.5 117.5c-0.8 8.2-5 28.3-12.7 47.6-9 22.4-17.2 29.9-19.6 30.9-6.8 0.8-29.6-3.4-63-18-33.1-14.5-51-27.9-54.8-32.4-5.2-11.7-5.4-20.1-5.6-30.7-0.2-13.4-0.5-30-12.1-48.7-8.6-13.8-24.4-24.3-49.5-33-16.8-5.8-38.2-10.9-63.4-15-45-7.4-90.6-10-110.4-10s-65.4 2.7-110.4 10c-25.3 4.1-46.6 9.2-63.4 15-25.1 8.7-40.8 19.2-49.5 33-11.6 18.6-11.9 35.3-12.1 48.7-0.2 10.6-0.3 19-5.6 30.7-3.8 4.5-21.7 17.9-54.8 32.4-33.4 14.6-56.2 18.8-63 18-2.4-1-10.7-8.5-19.6-30.9-7.7-19.3-11.9-39.5-12.7-47.6-0.9-8.8 4.3-40.6 38.5-81.6 37.4-44.8 99.5-75.4 184.7-90.9 70.1-12.8 134.8-11.2 159.2-10.6 3.8 0.1 6.6 0.2 8.7 0.2s4.9-0.1 8.7-0.2c24.4-0.6 89-2.1 159.2 10.6 85.2 15.5 147.3 46.1 184.7 90.9 34.2 41 39.4 72.8 38.5 81.6z" fill="currentColor" /></svg> 